<svg width="16" height="15" viewBox="0 0 16 15" fill="none" xmlns="http://www.w3.org/2000/svg">
<path d="M6.28662 12.0352C6.53857 12.0352 6.73779 11.9238 6.87842 11.707L12.4155 2.98828C12.521 2.81836 12.562 2.68945 12.562 2.55469C12.562 2.23242 12.3511 2.02148 12.0288 2.02148C11.7944 2.02148 11.6655 2.09766 11.5249 2.32031L6.26318 10.7051L3.53271 7.13086C3.38623 6.92578 3.23975 6.84375 3.02881 6.84375C2.69482 6.84375 2.46631 7.07227 2.46631 7.39453C2.46631 7.5293 2.5249 7.68164 2.63623 7.82227L5.67725 11.6953C5.85303 11.9238 6.03467 12.0352 6.28662 12.0352Z" fill="#84A298"/>
<line x1="14.647" y1="2.69165" x2="9.20063" y2="11.0784" stroke="#84A298" stroke-linecap="round"/>
</svg>
