<svg width="11" height="11" viewBox="0 0 11 11" fill="none" xmlns="http://www.w3.org/2000/svg">
<path d="M4.28662 10.0352C4.53857 10.0352 4.73779 9.92383 4.87842 9.70703L10.4155 0.988281C10.521 0.818359 10.562 0.689453 10.562 0.554688C10.562 0.232422 10.3511 0.0214844 10.0288 0.0214844C9.79443 0.0214844 9.66553 0.0976562 9.5249 0.320312L4.26318 8.70508L1.53271 5.13086C1.38623 4.92578 1.23975 4.84375 1.02881 4.84375C0.694824 4.84375 0.466309 5.07227 0.466309 5.39453C0.466309 5.5293 0.524902 5.68164 0.63623 5.82227L3.67725 9.69531C3.85303 9.92383 4.03467 10.0352 4.28662 10.0352Z" fill="#828282"/>
</svg>
